<svg xmlns="http://www.w3.org/2000/svg" version="1.1" xmlns:xlink="http://www.w3.org/1999/xlink" xmlns:svgjs="http://svgjs.dev/svgjs" viewBox="0 0 800 800" opacity="0.67"><defs><linearGradient x1="50%" y1="0%" x2="50%" y2="100%" id="hhhorizon-grad"><stop stop-color="#006199" stop-opacity="1" offset="25%"></stop><stop stop-color="#8cc63f" stop-opacity="1" offset="100%"></stop></linearGradient><linearGradient x1="50%" y1="0%" x2="50%" y2="100%" id="hhhorizon-grad2"><stop stop-color="#8cc63f" stop-opacity="1" offset="0%"></stop><stop stop-color="#006199" stop-opacity="1" offset="75%"></stop></linearGradient><clipPath id="SvgjsClipPath1056"><rect width="800" height="49" x="0" y="0"></rect><rect width="800" height="48" x="0" y="17"></rect><rect width="800" height="47" x="0" y="33"></rect><rect width="800" height="46" x="0" y="50"></rect><rect width="800" height="45" x="0" y="67"></rect><rect width="800" height="44" x="0" y="83"></rect><rect width="800" height="43" x="0" y="100"></rect><rect width="800" height="42" x="0" y="117"></rect><rect width="800" height="41" x="0" y="133"></rect><rect width="800" height="40" x="0" y="150"></rect><rect width="800" height="39" x="0" y="167"></rect><rect width="800" height="38" x="0" y="183"></rect><rect width="800" height="37" x="0" y="200"></rect><rect width="800" height="36" x="0" y="217"></rect><rect width="800" height="35" x="0" y="233"></rect><rect width="800" height="34" x="0" y="250"></rect><rect width="800" height="33" x="0" y="267"></rect><rect width="800" height="32" x="0" y="283"></rect><rect width="800" height="31" x="0" y="300"></rect><rect width="800" height="30" x="0" y="317"></rect><rect width="800" height="29" x="0" y="333"></rect><rect width="800" height="28" x="0" y="350"></rect><rect width="800" height="27" x="0" y="367"></rect><rect width="800" height="26" x="0" y="383"></rect><rect width="800" height="25" x="0" y="400"></rect><rect width="800" height="24" x="0" y="417"></rect><rect width="800" height="23" x="0" y="433"></rect><rect width="800" height="22" x="0" y="450"></rect><rect width="800" height="21" x="0" y="467"></rect><rect width="800" height="20" x="0" y="483"></rect><rect width="800" height="19" x="0" y="500"></rect><rect width="800" height="18" x="0" y="517"></rect><rect width="800" height="17" x="0" y="533"></rect><rect width="800" height="16" x="0" y="550"></rect><rect width="800" height="15" x="0" y="567"></rect><rect width="800" height="14" x="0" y="583"></rect><rect width="800" height="13" x="0" y="600"></rect><rect width="800" height="12" x="0" y="617"></rect><rect width="800" height="11" x="0" y="633"></rect><rect width="800" height="10" x="0" y="650"></rect><rect width="800" height="9" x="0" y="667"></rect><rect width="800" height="8" x="0" y="683"></rect><rect width="800" height="7" x="0" y="700"></rect><rect width="800" height="6" x="0" y="717"></rect><rect width="800" height="5" x="0" y="733"></rect><rect width="800" height="4" x="0" y="750"></rect><rect width="800" height="3" x="0" y="767"></rect><rect width="800" height="2" x="0" y="783"></rect><rect width="800" height="1" x="0" y="800"></rect></clipPath><clipPath><rect width="800" height="1" x="0" y="49"></rect><rect width="800" height="2" x="0" y="98"></rect><rect width="800" height="3" x="0" y="147"></rect><rect width="800" height="4" x="0" y="196"></rect><rect width="800" height="5" x="0" y="245"></rect><rect width="800" height="6" x="0" y="294"></rect><rect width="800" height="7" x="0" y="343"></rect><rect width="800" height="8" x="0" y="392"></rect><rect width="800" height="9" x="0" y="441"></rect><rect width="800" height="10" x="0" y="490"></rect><rect width="800" height="11" x="0" y="539"></rect><rect width="800" height="12" x="0" y="588"></rect><rect width="800" height="13" x="0" y="637"></rect><rect width="800" height="14" x="0" y="686"></rect><rect width="800" height="15" x="0" y="735"></rect><rect width="800" height="16" x="0" y="784"></rect><rect width="800" height="17" x="0" y="833"></rect></clipPath></defs><rect width="800" height="800" fill="url(#hhhorizon-grad)" clip-path="url(&quot;#SvgjsClipPath1056&quot;)"></rect></svg>